<?xml version="1.0" encoding="UTF-8"?>
<svg width="18px" height="15px" viewBox="0 0 18 15" version="1.1" xmlns="http://www.w3.org/2000/svg" xmlns:xlink="http://www.w3.org/1999/xlink">
    <!-- Generator: Sketch 64 (93537) - https://sketch.com -->
    <title>menu-icon-in-progress-active</title>
    <desc>Created with Sketch.</desc>
    <g id="Specs" stroke="none" stroke-width="1" fill="none" fill-rule="evenodd">
        <g id="00.-UI-Kit" transform="translate(-581.000000, -783.000000)" fill="#0E41A7" fill-rule="nonzero">
            <g id="menu-icon-in-progress-active" transform="translate(580.000000, 780.000000)">
                <path d="M8,3.33333333 C8.79676935,3.33333333 9.51192268,3.68277307 10.0005662,4.23675873 C10.4474514,3.72893855 11.0856193,3.39299375 11.8025925,3.34052948 L12,3.33333333 L18,3.33333333 C18.334718,3.33333333 18.611822,3.5800084 18.6594383,3.90148489 L18.6666667,4 L18.6666667,15.3333333 C18.6666667,15.6680514 18.4199916,15.9451553 18.0985151,15.9927716 L18,16 L13.2034771,16 C12.6148929,16 12.0381629,16.1558206 11.5312466,16.4497995 L11.3445387,16.5664833 L10.3263075,17.2480218 L10.261314,17.2805568 L10.1699384,17.3123976 L10.0915279,17.3282749 L10.0126307,17.3343734 L9.89677957,17.3264016 L9.80716642,17.3056222 L9.75421919,17.2864757 L9.66394542,17.2424507 L8.60809196,16.5694004 C8.14745876,16.2755068 7.62269456,16.100003 7.08038007,16.0567247 L6.84702088,16.0463127 L1.99363455,15.9999696 C1.66118936,15.9967952 1.38748648,15.7506901 1.34046981,15.4312093 L1.33333333,15.3333333 L1.33333333,4 C1.33333333,3.66528197 1.5800084,3.38817799 1.90148489,3.34056171 L2,3.33333333 L8,3.33333333 Z M2.666,4.666 L2.666,14.672 L6.85975178,14.7130402 C7.64653642,14.7205529 8.41718269,14.926838 9.10637547,15.3141979 L9.333,15.45 L9.33333333,6 C9.33333333,5.353141 8.87269901,4.81386891 8.26155828,4.69231166 L8.1284089,4.67277029 L8,4.66666667 L2.666,4.666 Z M17.333,4.666 L12,4.66666667 C11.3069368,4.66666667 10.737379,5.19545607 10.6727703,5.8715911 L10.6666667,6 L10.6663333,15.4153333 L10.8357873,15.3119105 C11.3927283,14.9839938 12.0109119,14.7758371 12.6507098,14.6995164 L12.9261167,14.6749143 L13.2034771,14.6666667 L17.333,14.666 L17.333,4.666 Z M8,12.6666667 L8,13.3333333 L4,13.3333333 L4,12.6666667 L8,12.6666667 Z M16,12.6666667 L16,13.3333333 L12,13.3333333 L12,12.6666667 L16,12.6666667 Z M7.33333333,11.3333333 L7.33333333,12 L4,12 L4,11.3333333 L7.33333333,11.3333333 Z M15.3333333,11.3333333 L15.3333333,12 L12,12 L12,11.3333333 L15.3333333,11.3333333 Z M8,10 L8,10.6666667 L4,10.6666667 L4,10 L8,10 Z M16,10 L16,10.6666667 L12,10.6666667 L12,10 L16,10 Z M7.33333333,8.66666667 L7.33333333,9.33333333 L4,9.33333333 L4,8.66666667 L7.33333333,8.66666667 Z M15.3333333,8.66666667 L15.3333333,9.33333333 L12,9.33333333 L12,8.66666667 L15.3333333,8.66666667 Z M8,7.33333333 L8,8 L4,8 L4,7.33333333 L8,7.33333333 Z M16,7.33333333 L16,8 L12,8 L12,7.33333333 L16,7.33333333 Z M7.33333333,6 L7.33333333,6.66666667 L4,6.66666667 L4,6 L7.33333333,6 Z M15.3333333,6 L15.3333333,6.66666667 L12,6.66666667 L12,6 L15.3333333,6 Z" id="Shape"></path>
            </g>
        </g>
    </g>
</svg>