<?xml version="1.0" encoding="UTF-8"?>
<svg width="19px" height="19px" viewBox="0 0 19 19" version="1.1" xmlns="http://www.w3.org/2000/svg" xmlns:xlink="http://www.w3.org/1999/xlink">
    <!-- Generator: Sketch 64 (93537) - https://sketch.com -->
    <title>menu-icon-wishlist-active</title>
    <desc>Created with Sketch.</desc>
    <g id="Specs" stroke="none" stroke-width="1" fill="none" fill-rule="evenodd">
        <g id="00.-UI-Kit" transform="translate(-541.000000, -781.000000)" fill="#0E41A7" fill-rule="nonzero">
            <g id="menu-icon-wishlist-active" transform="translate(540.000000, 780.000000)">
                <path d="M5.39997229,1.33333333 L5.39997229,7.12216304 L6.00035306,7.733 L6.55096434,7.17110719 L6.65514911,7.0699808 L6.73401973,7.00233333 L6.73335306,2.666 L12.7340197,2.66533333 L12.7333531,7.33333333 C12.7333531,7.66805136 12.9800281,7.94515534 13.3015046,7.99277162 L13.4000197,8 L18.0680197,7.99933333 L18.0673531,17.999 L6.73335306,17.999 L6.73401973,15.0603333 L6.00001973,15.8097134 L5.39997229,15.1963333 L5.39997229,19.3333333 L19.4000197,19.3333333 L19.4000197,7.05719096 L13.6761621,1.33333333 L5.39997229,1.33333333 Z M1.96063139,7.63755229 C1.15332014,8.46181722 1.12230449,9.78965864 1.88463272,10.6511173 L1.96644678,10.7388266 L6.00035306,14.857 L10.0394081,10.7327371 C10.8757792,9.87880206 10.8757792,8.49148733 10.0394081,7.63755229 C9.23573994,6.81700699 7.94662547,6.78561797 7.113329,7.55417492 L7.02130294,7.64349914 L6.00043504,8.68627372 L4.97282197,7.63761267 C4.14017753,6.78748257 2.79321668,6.78748257 1.96063139,7.63755229 Z M14.0673531,3.609 L17.1243531,6.666 L14.0673531,6.666 L14.0673531,3.609 Z" id="Shape"></path>
            </g>
        </g>
    </g>
</svg>